<?xml version="1.0" encoding="UTF-8" standalone="no"?>
<svg width="1136px" height="1136px" viewBox="0 0 1136 1136" version="1.1" xmlns="http://www.w3.org/2000/svg" xmlns:xlink="http://www.w3.org/1999/xlink" xmlns:sketch="http://www.bohemiancoding.com/sketch/ns">
    <!-- Generator: Sketch 3.0.4 (8054) - http://www.bohemiancoding.com/sketch -->
    <title>Profile</title>
    <desc>Created with Sketch.</desc>
    <defs></defs>
    <g id="Page-1" stroke="none" stroke-width="1" fill="none" fill-rule="evenodd" sketch:type="MSPage">
        <g id="Profile" sketch:type="MSArtboardGroup">
            <circle id="Oval-15" fill="#4990E2" sketch:type="MSShapeGroup" cx="570" cy="555" r="550"></circle>
            <path d="M399.820558,756.238048 C378.726824,770.629736 308.621367,817.833555 267.872955,837.678484 C224.498689,858.802232 130.750157,886.049729 130.750157,886.049729 C130.750157,886.049729 185.000005,970.999994 300.000005,1034.99999 C415.000005,1098.99999 510.610915,1105 570,1105 C703.577084,1105 810.567578,1059.60401 886.999974,1004.99999 C984.376176,935.43353 1009.99997,886.049728 1009.99997,886.049728 C1009.99997,886.049728 967.3395,874.862654 886.999974,837.678482 C844.778594,818.136829 801.363815,791.880985 769.671067,771.365249 C769.891647,771.125373 769.999988,771 769.999988,771 C769.999988,771 715.861048,734.615721 713.999988,700 C710.592702,636.624482 721.98266,595.082366 730,557 C735.315993,531.749033 760,495 760,495 C760,495 766.45751,526.240424 785.999988,506 C805.542466,485.759576 807.160652,469.875353 811.999988,436 C816.839324,402.124647 815.999988,357 804.999988,346 C793.999988,335 777.999988,352 777.999988,352 L786,239 C786,239 781.026893,210.46493 774,199 C768.360226,189.798264 748,177 748,177 C748,177 729.635197,139.584684 684,111 C638.364803,82.415316 586,77 586,77 C586,77 511.249946,83.8015805 468,111 C424.750054,138.198419 414.315206,140.48457 392,199 C369.684794,257.51543 387.999999,346 387.999999,346 C387.999999,346 350.266529,334.353307 346,363 C341.733471,391.646693 364,441 364,441 L382,495 C382,495 391.999996,513 410,513 C428.000004,513 422.000004,485 428,495 C433.999996,505 458.151921,644.438928 454,685 C449.848079,725.561072 399.999999,755 399.999999,755 C399.999999,755 399.915163,755.433607 399.820558,756.238048 Z" id="Oval-16" fill="#FFFFFF" sketch:type="MSShapeGroup"></path>
            <g id="Zach" sketch:type="MSLayerGroup" transform="translate(130.000000, 65.000000)">
                <g id="Base" transform="translate(0.000000, 12.000000)"></g>
            </g>
        </g>
    </g>
</svg>